<svg xmlns="http://www.w3.org/2000/svg" viewBox="0 0 395.4 395.4"><path d="M358.3 229.5l37.1-31.8 -37.1-31.8c-2.7-2.3-3.5-6.1-2.1-9.3l19.7-44.7 -47.2-12.4c-3.4-0.9-5.8-3.9-6-7.5l-1.7-48.8 -48 9.2c-3.5 0.7-6.9-1-8.6-4.1L241.7 4.9l-39.2 29.2c-2.8 2.1-6.7 2.1-9.5 0L153.7 4.9 131 48.2c-1.6 3.1-5.1 4.8-8.6 4.2l-48-9.2 -1.7 48.9c-0.1 3.5-2.5 6.6-6 7.5L19.6 111.9l19.7 44.7c1.4 3.2 0.6 7-2.1 9.3L0 197.7l37.1 31.8c2.7 2.3 3.5 6.1 2.1 9.3L19.6 283.5l47.3 12.5c3.4 0.9 5.8 3.9 6 7.5l1.7 48.9 48-9.2c0.5-0.1 1-0.1 1.5-0.1 2.9 0 5.7 1.6 7.1 4.3l22.7 43.3 39.2-29.2c2.8-2.1 6.7-2.1 9.6 0l39.2 29.2 22.7-43.3c1.6-3.1 5.1-4.8 8.6-4.1l48 9.2 1.7-48.8c0.1-3.5 2.5-6.6 6-7.5l47.3-12.4 -19.7-44.7C354.7 235.6 355.6 231.8 358.3 229.5zM197.7 345.7c-81.6 0-148-66.4-148-148s66.4-148 148-148 148 66.4 148 148S279.3 345.7 197.7 345.7z"/><path d="M197.7 65.7c-72.8 0-132 59.2-132 132s59.2 132 132 132c72.8 0 132-59.2 132-132S270.5 65.7 197.7 65.7z"/></svg>