<?xml version="1.0" standalone="no"?>
<!DOCTYPE svg PUBLIC "-//W3C//DTD SVG 20010904//EN"
 "http://www.w3.org/TR/2001/REC-SVG-20010904/DTD/svg10.dtd">
<svg version="1.0" xmlns="http://www.w3.org/2000/svg"
 width="900.000000pt" height="900.000000pt" viewBox="0 0 900.000000 900.000000"
 preserveAspectRatio="xMidYMid meet">
<metadata>
Created by potrace 1.11, written by Peter Selinger 2001-2013
</metadata>
<g transform="translate(0.000000,900.000000) scale(0.100000,-0.100000)"
fill="#000000" stroke="none">
<path d="M3738 8485 c-2 -2 -50 -6 -108 -9 -115 -7 -162 -11 -290 -26 -113
-13 -177 -20 -225 -25 -22 -2 -40 -4 -40 -5 0 -1 -13 -3 -30 -5 -32 -3 -94
-12 -129 -20 -12 -2 -41 -7 -66 -10 -25 -3 -56 -7 -70 -10 -14 -3 -38 -7 -55
-9 -61 -9 -268 -49 -310 -60 -76 -21 -109 -32 -157 -56 -175 -87 -306 -221
-410 -419 -30 -57 -89 -187 -93 -205 -1 -6 -8 -24 -15 -41 -6 -16 -52 -151
-101 -300 -49 -148 -93 -279 -98 -290 -13 -29 -36 -89 -36 -95 0 -3 -6 -15
-13 -27 -15 -28 -42 -141 -49 -213 -12 -112 -5 -252 18 -389 6 -31 12 -69 14
-86 2 -16 6 -39 9 -50 8 -35 36 -159 41 -185 3 -14 10 -36 14 -50 9 -23 21
-68 27 -98 1 -8 15 -55 30 -105 90 -303 125 -387 163 -387 19 0 51 29 51 46 0
6 6 16 13 23 6 6 12 15 12 19 1 4 8 21 17 37 15 28 87 199 92 220 2 6 12 30
23 55 11 25 30 74 43 110 13 36 30 75 38 87 7 12 13 24 13 28 -1 3 6 21 14 41
8 20 15 39 15 43 1 3 9 24 20 46 11 22 19 43 20 47 0 12 165 347 200 407 17
30 44 73 61 97 16 23 29 47 29 53 0 6 4 11 8 11 4 0 15 12 24 28 9 15 25 37
35 48 10 12 29 36 43 53 30 40 168 149 270 215 41 26 94 61 118 77 56 38 64
37 58 -8 -3 -21 -8 -69 -11 -108 -3 -38 -7 -88 -10 -110 -10 -89 -28 -382 -29
-477 -1 -43 -3 -78 -6 -78 -3 0 -5 -39 -6 -88 -1 -83 -10 -374 -19 -602 -4
-94 -11 -221 -19 -380 -6 -105 -17 -255 -21 -280 -2 -14 -7 -61 -11 -105 -9
-103 -12 -130 -14 -130 -1 0 -3 -16 -5 -35 -6 -46 -26 -197 -31 -235 -3 -16
-7 -48 -9 -70 -3 -22 -7 -51 -10 -65 -3 -14 -7 -43 -10 -65 -10 -70 -14 -99
-19 -125 -3 -14 -8 -45 -11 -70 -3 -25 -12 -81 -20 -125 -8 -44 -17 -102 -20
-130 -3 -27 -8 -61 -11 -75 -2 -14 -6 -34 -8 -46 -2 -12 -7 -45 -11 -75 -3
-30 -9 -67 -12 -84 -3 -16 -6 -36 -6 -43 0 -8 -10 -17 -22 -22 -20 -8 -183
-18 -380 -25 -193 -6 -455 -17 -510 -20 -104 -7 -219 -16 -255 -20 -19 -3 -51
-7 -70 -9 -99 -13 -138 -20 -256 -47 -71 -16 -133 -31 -139 -33 -5 -1 -23 -6
-40 -11 -106 -28 -323 -131 -423 -201 -85 -60 -82 -57 -192 -164 -203 -197
-306 -373 -344 -586 -18 -102 -6 -273 24 -333 4 -9 13 -29 20 -46 7 -16 16
-37 22 -45 5 -8 14 -27 21 -42 6 -16 15 -28 19 -28 4 0 8 -7 8 -15 0 -8 4 -15
8 -15 4 0 15 -12 24 -28 37 -62 266 -272 297 -272 5 0 11 -3 13 -8 6 -14 236
-154 258 -157 3 -1 21 -9 40 -20 19 -11 37 -20 40 -20 3 -1 23 -10 45 -22 22
-11 43 -22 47 -22 9 -2 72 -27 113 -46 41 -18 78 -29 87 -27 5 1 8 -2 8 -6 0
-5 6 -9 13 -10 6 0 50 -15 97 -32 47 -17 92 -33 100 -35 8 -2 31 -9 50 -15 19
-6 46 -13 60 -16 13 -3 30 -10 37 -16 7 -6 13 -8 13 -4 0 3 11 1 25 -4 14 -5
36 -12 48 -14 12 -3 53 -14 92 -25 38 -11 73 -17 77 -15 4 3 8 0 8 -6 0 -6 4
-9 8 -6 5 3 36 -3 70 -13 33 -10 63 -17 66 -14 2 3 11 1 18 -3 7 -5 22 -9 33
-11 11 -1 37 -6 57 -11 20 -5 39 -7 42 -4 4 3 6 1 6 -4 0 -5 10 -9 23 -10 12
0 36 -3 52 -7 49 -10 149 -28 180 -32 11 -2 34 -6 50 -9 30 -6 137 -22 210
-32 22 -3 56 -7 75 -10 19 -3 53 -7 75 -9 22 -2 58 -6 80 -9 81 -12 280 -24
499 -31 82 -3 163 -7 180 -10 29 -6 58 -9 146 -19 19 -2 46 -7 60 -9 14 -3 43
-8 65 -11 22 -3 51 -8 65 -10 55 -10 96 -17 120 -20 14 -2 50 -8 80 -14 80
-16 121 -23 155 -28 17 -2 55 -9 85 -14 30 -6 69 -12 85 -14 17 -3 46 -7 65
-11 19 -4 46 -9 60 -11 14 -1 43 -6 65 -9 22 -4 54 -8 70 -10 17 -1 30 -4 30
-5 0 -2 13 -4 105 -14 30 -4 69 -8 85 -11 17 -2 55 -7 85 -10 30 -3 69 -8 85
-10 49 -7 134 -15 220 -21 44 -3 98 -7 120 -10 227 -22 991 -23 1240 0 33 3
96 8 140 11 44 3 98 8 120 10 22 3 69 7 105 10 35 3 76 7 90 10 14 2 48 7 75
10 54 6 135 15 175 20 14 2 25 4 25 5 0 1 14 3 30 5 27 4 82 14 110 21 6 1 24
5 40 9 17 3 35 7 40 9 6 1 30 8 55 15 41 11 134 43 170 58 8 3 18 7 23 8 4 2
9 4 12 5 3 1 8 3 13 5 14 4 68 27 119 51 28 13 54 24 56 24 4 0 169 92 244
136 18 10 33 23 33 27 0 5 5 5 10 2 6 -3 10 -1 10 4 0 6 7 11 15 11 9 0 18 7
21 15 4 8 9 13 13 10 4 -2 19 7 34 21 14 13 29 24 32 24 4 0 12 6 19 13 7 6
28 23 46 37 76 56 209 183 301 286 41 46 109 142 109 154 0 5 4 10 8 10 16 0
111 204 132 282 27 98 32 218 15 304 -15 68 -72 195 -109 242 -38 47 -144 148
-188 178 -24 16 -44 32 -46 37 -2 4 -8 7 -12 7 -5 0 -33 14 -62 31 -90 53
-239 115 -435 179 -103 34 -192 63 -198 64 -5 1 -16 5 -22 9 -7 5 -13 6 -13 2
0 -3 -16 1 -35 9 -20 9 -38 15 -40 15 -3 0 -29 7 -58 15 -65 19 -316 86 -337
90 -8 1 -33 8 -55 14 -22 6 -51 13 -65 16 -14 2 -79 16 -145 31 -66 14 -132
28 -147 30 -15 2 -31 6 -35 8 -4 3 -30 8 -57 11 -27 4 -52 9 -55 11 -3 1 -24
6 -46 9 -22 4 -47 8 -55 11 -8 2 -35 6 -60 10 -25 3 -62 9 -84 13 l-38 7 -33
108 c-18 59 -33 109 -33 110 0 10 -32 120 -74 252 -27 88 -51 168 -53 177 -2
9 -9 26 -15 37 -6 12 -8 21 -4 21 3 0 1 7 -6 15 -7 8 -10 15 -6 15 3 0 -1 17
-8 38 -19 48 -95 296 -136 437 -17 61 -34 117 -37 125 -4 8 -6 18 -5 21 1 4
-3 22 -9 40 -6 19 -12 43 -14 54 -3 11 -7 31 -10 45 -4 14 -8 34 -10 45 -6 24
-13 58 -19 83 -5 21 -76 377 -82 412 -3 14 -12 61 -20 105 -8 44 -17 90 -20
103 -2 12 -6 34 -9 50 -3 15 -13 63 -21 107 -39 207 -60 310 -68 345 -3 13 -8
42 -12 64 -3 22 -7 43 -10 47 -2 3 -6 24 -9 45 -10 66 -31 159 -42 184 -3 8
-6 18 -5 22 3 11 -53 172 -93 273 -38 95 -137 289 -161 316 -8 8 -14 19 -14
24 0 14 -241 367 -286 418 -13 15 -22 27 -18 27 3 0 -10 19 -29 43 -19 23 -69
92 -112 152 -43 61 -81 112 -84 115 -4 3 -18 23 -33 45 -15 22 -42 61 -60 86
-18 25 -80 113 -137 195 -186 266 -213 303 -260 352 -25 27 -66 61 -90 76 -89
56 -112 60 -418 62 -155 1 -283 0 -285 -1z"/>
</g>
</svg>
